<?xml version="1.0" encoding="UTF-8" standalone="no" ?>
<!DOCTYPE svg PUBLIC "-//W3C//DTD SVG 1.1//EN" "http://www.w3.org/Graphics/SVG/1.1/DTD/svg11.dtd">
<svg xmlns="http://www.w3.org/2000/svg" xmlns:xlink="http://www.w3.org/1999/xlink" version="1.1" width="1080" height="1080" viewBox="0 0 1080 1080" xml:space="preserve">
<desc>Created with Fabric.js 5.2.4</desc>
<defs>
</defs>
<g transform="matrix(1 0 0 1 540 540)" id="b356cb59-2333-4f02-bfdb-840f569d2578"  >
<rect style="stroke: none; stroke-width: 1; stroke-dasharray: none; stroke-linecap: butt; stroke-dashoffset: 0; stroke-linejoin: miter; stroke-miterlimit: 4; fill: rgb(255,255,255); fill-rule: nonzero; opacity: 1; visibility: hidden;" vector-effect="non-scaling-stroke"  x="-540" y="-540" rx="0" ry="0" width="1080" height="1080" />
</g>
<g transform="matrix(1 0 0 1 540 540)" id="e18118d3-a527-4257-bedd-9e428adc61c3"  >
</g>
<g transform="matrix(1 0 0 1 540 540)"  >
<g style="" vector-effect="non-scaling-stroke"   >
		<g transform="matrix(1 0 0 1 374.35 0)"  >
<path style="stroke: none; stroke-width: 1; stroke-dasharray: none; stroke-linecap: butt; stroke-dashoffset: 0; stroke-linejoin: miter; stroke-miterlimit: 4; fill: rgb(255,255,255); fill-rule: nonzero; opacity: 1;" vector-effect="non-scaling-stroke"  transform=" translate(-858.3, -109.6)" d="M 858.1 189.8 C 902.5 189.8 938.1 153.9 938.1 109.50000000000001 C 938.1 65.10000000000002 902.5 29.500000000000014 858.1 29.500000000000014 C 813.7 29.500000000000014 778.1 65.4 778.1 109.50000000000001 C 778.2 153.5 814.1 189.8 858.1 189.8 z M 749.1 0.4 L 967.5 0.4 L 967.5 218.8 L 749.1 218.8 L 749.1 0.4 z" stroke-linecap="round" />
</g>
		<g transform="matrix(1 0 0 1 -126.55 0)"  >
<path style="stroke: none; stroke-width: 1; stroke-dasharray: none; stroke-linecap: butt; stroke-dashoffset: 0; stroke-linejoin: miter; stroke-miterlimit: 4; fill: rgb(255,255,255); fill-rule: evenodd; opacity: 1;" vector-effect="non-scaling-stroke"  transform=" translate(-357.4, -109.6)" d="M 430.3 142.6 C 417.5 170.4 389.7 189.8 357.20000000000005 189.8 C 314.1 189.8 278.80000000000007 155.4 277.20000000000005 112.60000000000001 L 466.50000000000006 112.60000000000001 L 466.50000000000006 0.4 L 248.2 0.4 L 248.2 218.8 L 466.6 218.8 L 466.6 142.60000000000002 L 430.3 142.60000000000002 z M 280.7 85.7 L 433.2 85.7 C 422 48.5 392 29.5 357.29999999999995 29.5 C 322.5999999999999 29.5 290.3 49.8 280.7 85.7 L 280.7 85.7 z" stroke-linecap="round" />
</g>
		<g transform="matrix(1 0 0 1 -374.35 0)"  >
<path style="stroke: none; stroke-width: 1; stroke-dasharray: none; stroke-linecap: butt; stroke-dashoffset: 0; stroke-linejoin: miter; stroke-miterlimit: 4; fill: rgb(255,255,255); fill-rule: nonzero; opacity: 1;" vector-effect="non-scaling-stroke"  transform=" translate(-109.6, -109.6)" d="M 218.8 0.4 L 0.4 0.4 L 0.4 218.8 L 218.8 218.8 L 218.8 142.60000000000002 L 182.60000000000002 142.60000000000002 C 170.10000000000002 170.40000000000003 142.00000000000003 189.8 109.80000000000003 189.8 C 65.40000000000003 189.8 29.50000000000003 153.60000000000002 29.50000000000003 109.50000000000001 C 29.50000000000003 65.4 65.40000000000003 29.500000000000014 109.80000000000003 29.500000000000014 C 142.60000000000002 29.500000000000014 170.70000000000002 49.500000000000014 183.20000000000005 77.9 L 218.80000000000004 77.9 L 218.80000000000004 0.4 z" stroke-linecap="round" />
</g>
		<g transform="matrix(1 0 0 1 124.75 0)"  >
<path style="stroke: none; stroke-width: 1; stroke-dasharray: none; stroke-linecap: butt; stroke-dashoffset: 0; stroke-linejoin: miter; stroke-miterlimit: 4; fill: rgb(255,255,255); fill-rule: nonzero; opacity: 1;" vector-effect="non-scaling-stroke"  transform=" translate(-608.7, -109.6)" d="M 721.8 142.6 L 685.5999999999999 142.6 L 685.5999999999999 142.6 C 674.6999999999999 171.29999999999998 645.3 189.5 611.8999999999999 189.5 C 568.7999999999998 189.5 532.4999999999999 158.3 532.4999999999999 109.5 L 532.4999999999999 0.4 L 495.5999999999999 0.4 L 495.5999999999999 218.8 L 721.8 218.8 L 721.8 142.6 z" stroke-linecap="round" />
</g>
</g>
</g>
</svg>